<svg width="100" height="100" viewBox="0 0 100 100" fill="none" xmlns="http://www.w3.org/2000/svg">
  <!-- 고양이 얼굴 -->
  <circle cx="50" cy="50" r="25" fill="#FFFEF7" stroke="#735030" stroke-width="2.5"/>
  <!-- 고양이 귀 -->
  <path d="M32 32 L40 15 L48 32" fill="#FFFEF7" stroke="#735030" stroke-width="2.5" 
        stroke-linejoin="round" stroke-linecap="round"/>
  <path d="M52 32 L60 15 L68 32" fill="#FFFEF7" stroke="#735030" stroke-width="2.5" 
        stroke-linejoin="round" stroke-linecap="round"/>
  <!-- 귀 안쪽 -->
  <line x1="36" y1="27" x2="40" y2="20" stroke="#A68B6B" stroke-width="1.5" stroke-linecap="round"/>
  <line x1="64" y1="27" x2="60" y2="20" stroke="#A68B6B" stroke-width="1.5" stroke-linecap="round"/>
  <!-- 눈 -->
  <circle cx="42" cy="45" r="2" fill="#735030"/>
  <circle cx="58" cy="45" r="2" fill="#735030"/>
  <!-- 코 -->
  <path d="M48 52 L52 52 L50 55" fill="#A68B6B" stroke-linejoin="round"/>
  <!-- 입 -->
  <path d="M50 55 Q46 60 43 58" stroke="#735030" stroke-width="1.8" fill="none" stroke-linecap="round"/>
  <path d="M50 55 Q54 60 57 58" stroke="#735030" stroke-width="1.8" fill="none" stroke-linecap="round"/>
  <!-- 수염 -->
  <line x1="30" y1="48" x2="38" y2="50" stroke="#735030" stroke-width="1.2" stroke-linecap="round"/>
  <line x1="30" y1="54" x2="38" y2="54" stroke="#735030" stroke-width="1.2" stroke-linecap="round"/>
  <line x1="62" y1="50" x2="70" y2="48" stroke="#735030" stroke-width="1.2" stroke-linecap="round"/>
  <line x1="62" y1="54" x2="70" y2="54" stroke="#735030" stroke-width="1.2" stroke-linecap="round"/>
</svg> 